<?xml version="1.0" encoding="UTF-8"?>
<svg id="Layer_1" xmlns="http://www.w3.org/2000/svg" version="1.1" viewBox="0 0 248 37" height="37" width="248">
  <!-- Generator: Adobe Illustrator 29.8.1, SVG Export Plug-In . SVG Version: 2.1.1 Build 2)  -->
  <path d="M14.9.6c2.1,2.1,4.9,4.8,7.4,7.7,3.4-2,5.7-2.3,6.9-1.1,3.2,3.1-5,12.9-10.3,18.2-4.5,4.5-12.2,11-16.3,11-.8,0-1.4-.2-1.9-.7-1.4-1.4-.8-4,1.9-8.1-.9-1.9-1.5-4-1.5-6.2,0-.7,0-1.3.2-2,.4-2.4,1.3-4.6,2.8-6.5C7.2,8,12,3.5,14.9.6ZM3.9,29.7c-1.7,2.8-1.7,4.1-1.6,4.3.4.3,2-.2,4.3-1.6-1-.8-2-1.7-2.7-2.7ZM27.6,8.8c-.2-.1-1.3,0-3.8,1.3.7.9,1.3,1.7,1.9,2.6.1.1.2.3.3.4,1.4-2.3,1.9-3.9,1.6-4.3Z" fill="#fff" fill-rule="evenodd"/>
  <path d="M27.5,19c.3-.4,1-.3,1,.3.1.7.2,1.4.2,2.2,0,5.8-3.6,11.1-9.1,13-2.3.8-4.6,1-6.8.6-.5,0-.7-.7-.3-1,3.5-2.6,6.6-5.6,8-7,1.3-1.3,4.4-4.5,7-8Z" fill="#fff"/>
  <g>
    <path d="M47.4,28.3V1.6h4.4v26.8h-4.4ZM50.4,5.6V1.6h14.3v4h-14.3ZM50.4,16.9v-4h13.6v4h-13.6Z" fill="#fff"/>
    <path d="M70.6,6.6c-.7,0-1.3-.2-1.8-.7-.5-.5-.7-1.1-.7-1.8s.2-1.3.7-1.8c.5-.5,1.1-.7,1.8-.7s1.3.2,1.8.7c.5.5.7,1.1.7,1.8s-.2,1.3-.7,1.8c-.5.5-1.1.7-1.8.7ZM68.5,28.3V10h4.2v18.4h-4.2Z" fill="#fff"/>
    <path d="M77.4,28.3V10h4.2v18.4h-4.2ZM90,28.3v-10.6c0-1.2-.4-2.2-1.2-3-.8-.8-1.8-1.2-3-1.2s-1.5.2-2.2.5c-.6.4-1.1.9-1.5,1.5-.4.6-.5,1.4-.5,2.2l-1.6-.9c0-1.4.3-2.6.9-3.7.6-1.1,1.5-1.9,2.5-2.6,1.1-.6,2.3-.9,3.7-.9s2.6.4,3.7,1.1c1.1.7,1.9,1.6,2.5,2.7s.9,2.3.9,3.5v11.5h-4.2Z" fill="#fff"/>
    <path d="M99.1,28.3V1.6h4.4v26.8h-4.4ZM102.1,28.3v-4h7c1.8,0,3.4-.4,4.8-1.2,1.4-.8,2.5-1.9,3.3-3.3.8-1.4,1.2-3.1,1.2-4.9s-.4-3.5-1.2-4.9c-.8-1.4-1.9-2.5-3.3-3.3-1.4-.8-3-1.2-4.8-1.2h-7V1.6h7.2c1.9,0,3.7.3,5.4,1,1.7.7,3.1,1.6,4.3,2.8,1.2,1.2,2.2,2.6,2.9,4.2.7,1.6,1,3.4,1,5.3s-.3,3.6-1,5.3c-.7,1.6-1.6,3.1-2.9,4.3s-2.7,2.2-4.3,2.8c-1.7.7-3.4,1-5.4,1h-7.2Z" fill="#fff"/>
    <path d="M126.8,28.3V10h4.2v18.4h-4.2ZM131,18.1l-1.5-.7c0-2.3.5-4.2,1.5-5.6,1-1.4,2.6-2.2,4.7-2.2s1.7.2,2.5.5c.7.3,1.4.9,2.1,1.6l-2.8,2.8c-.3-.4-.7-.6-1.1-.8-.4-.2-.9-.2-1.4-.2-1.2,0-2.1.4-2.9,1.1-.8.7-1.1,1.9-1.1,3.5Z" fill="#fff"/>
    <path d="M150.2,28.7c-1.8,0-3.4-.4-4.9-1.3-1.5-.9-2.6-2-3.5-3.5-.9-1.5-1.3-3.1-1.3-4.9s.4-3.4,1.3-4.8c.9-1.4,2-2.6,3.5-3.4,1.5-.9,3.1-1.3,4.9-1.3s3.4.4,4.9,1.3,2.6,2,3.5,3.4c.9,1.4,1.3,3.1,1.3,4.8s-.4,3.4-1.3,4.9c-.9,1.5-2,2.6-3.5,3.5-1.5.9-3.1,1.3-4.9,1.3ZM150.2,24.7c1,0,2-.2,2.8-.7s1.4-1.1,1.9-2c.4-.8.7-1.8.7-2.9s-.2-2-.7-2.8c-.5-.8-1.1-1.5-1.9-1.9-.8-.5-1.7-.7-2.8-.7s-1.9.2-2.7.7c-.8.5-1.4,1.1-1.9,1.9-.4.8-.7,1.8-.7,2.8s.2,2,.7,2.9c.4.8,1.1,1.5,1.9,2,.8.5,1.7.7,2.7.7Z" fill="#fff"/>
    <path d="M163.4,36V10h4.2v4.9l-.7,4.5.7,4.4v12.2h-4.2ZM173.2,28.7c-1.4,0-2.7-.3-3.7-.9-1.1-.6-2-1.4-2.6-2.5s-.9-2.2-.9-3.6v-5.3c0-1.3.3-2.5,1-3.6.6-1,1.5-1.9,2.6-2.5,1.1-.6,2.3-.9,3.7-.9s3.2.4,4.5,1.3c1.3.9,2.4,2,3.2,3.4.8,1.4,1.2,3.1,1.2,4.9s-.4,3.4-1.2,4.8c-.8,1.4-1.8,2.6-3.2,3.4-1.3.8-2.8,1.3-4.5,1.3ZM172.5,24.7c1,0,1.9-.2,2.7-.7.8-.5,1.4-1.1,1.8-2,.4-.8.7-1.8.7-2.9s-.2-2.1-.7-2.9-1.1-1.5-1.8-2c-.8-.5-1.7-.7-2.7-.7s-1.9.2-2.7.7c-.8.5-1.4,1.1-1.8,2s-.6,1.8-.6,2.9.2,2.1.6,2.9c.4.8,1,1.5,1.8,2,.8.5,1.7.7,2.7.7Z" fill="#fff"/>
  </g>
</svg>